<svg width="1292" height="554" viewBox="0 0 1292 554" fill="none" xmlns="http://www.w3.org/2000/svg">
<path d="M-30.511 13.7H22.787C40.7723 13.7 54.2613 18.5253 63.254 28.176C72.2467 37.8267 76.743 51.9737 76.743 70.617V93.318C76.743 111.961 72.2467 126.108 63.254 135.759C54.2613 145.41 40.7723 150.235 22.787 150.235H5.679V244H-30.511V13.7ZM22.787 117.335C28.709 117.335 33.0957 115.69 35.947 112.4C39.0177 109.11 40.553 103.517 40.553 95.621V68.314C40.553 60.418 39.0177 54.825 35.947 51.535C33.0957 48.245 28.709 46.6 22.787 46.6H5.679V117.335H22.787ZM83.2382 13.7H136.865C155.509 13.7 169.107 18.0867 177.661 26.86C186.215 35.414 190.492 48.6837 190.492 66.669V80.816C190.492 104.723 182.596 119.857 166.804 126.218V126.876C175.578 129.508 181.719 134.882 185.228 142.997C188.957 151.112 190.821 161.969 190.821 175.568V216.035C190.821 222.615 191.041 227.989 191.479 232.156C191.918 236.104 193.015 240.052 194.769 244H157.921C156.605 240.271 155.728 236.762 155.289 233.472C154.851 230.182 154.631 224.26 154.631 215.706V173.594C154.631 163.066 152.877 155.718 149.367 151.551C146.077 147.384 140.265 145.3 131.93 145.3H119.428V244H83.2382V13.7ZM132.588 112.4C139.826 112.4 145.2 110.536 148.709 106.807C152.438 103.078 154.302 96.8273 154.302 88.054V70.288C154.302 61.9533 152.767 55.9217 149.696 52.193C146.845 48.4643 142.239 46.6 135.878 46.6H119.428V112.4H132.588ZM202.771 13.7H238.961V244H202.771V13.7ZM252.904 13.7H304.558L327.587 178.529H328.246L351.275 13.7H402.928V244H368.712V69.63H368.055L341.735 244H311.467L285.147 69.63H284.488V244H252.904V13.7ZM416.775 13.7H515.475V46.6H452.965V107.465H502.644V140.365H452.965V211.1H515.475V244H416.775V13.7ZM-30.511 283.7H68.189V316.6H5.679V377.465H55.358V410.365H5.679V481.1H68.189V514H-30.511V283.7ZM75.8485 283.7H121.251L156.454 421.551H157.112V283.7H189.354V514H152.177L108.749 345.881H108.091V514H75.8485V283.7ZM203.092 283.7H301.792V316.6H239.282V377.465H288.961V410.365H239.282V481.1H301.792V514H203.092V283.7ZM309.451 283.7H363.078C381.722 283.7 395.32 288.087 403.874 296.86C412.428 305.414 416.705 318.684 416.705 336.669V350.816C416.705 374.723 408.809 389.857 393.017 396.218V396.876C401.791 399.508 407.932 404.882 411.441 412.997C415.17 421.112 417.034 431.969 417.034 445.568V486.035C417.034 492.615 417.254 497.989 417.692 502.156C418.131 506.104 419.228 510.052 420.982 514H384.134C382.818 510.271 381.941 506.762 381.502 503.472C381.064 500.182 380.844 494.26 380.844 485.706V443.594C380.844 433.066 379.09 425.718 375.58 421.551C372.29 417.384 366.478 415.3 358.143 415.3H345.641V514H309.451V283.7ZM358.801 382.4C366.039 382.4 371.413 380.536 374.922 376.807C378.651 373.078 380.515 366.827 380.515 358.054V340.288C380.515 331.953 378.98 325.922 375.909 322.193C373.058 318.464 368.452 316.6 362.091 316.6H345.641V382.4H358.801ZM480.308 517.29C462.761 517.29 449.382 512.355 440.17 502.485C430.958 492.396 426.352 478.029 426.352 459.386V338.314C426.352 319.671 430.958 305.414 440.17 295.544C449.382 285.455 462.761 280.41 480.308 280.41C497.854 280.41 511.234 285.455 520.446 295.544C529.658 305.414 534.264 319.671 534.264 338.314V358.054H500.048V336.011C500.048 320.877 493.797 313.31 481.295 313.31C468.793 313.31 462.542 320.877 462.542 336.011V462.018C462.542 476.933 468.793 484.39 481.295 484.39C493.797 484.39 500.048 476.933 500.048 462.018V416.945H481.953V384.045H534.264V459.386C534.264 478.029 529.658 492.396 520.446 502.485C511.234 512.355 497.854 517.29 480.308 517.29ZM572.749 415.958L528.992 283.7H567.485L592.16 368.253H592.818L617.493 283.7H652.696L608.939 415.958V514H572.749V415.958ZM746.695 517.29C729.148 517.29 715.769 512.355 706.557 502.485C697.345 492.396 692.739 478.029 692.739 459.386V338.314C692.739 319.671 697.345 305.414 706.557 295.544C715.769 285.455 729.148 280.41 746.695 280.41C764.242 280.41 777.621 285.455 786.833 295.544C796.045 305.414 800.651 319.671 800.651 338.314V358.054H766.435V336.011C766.435 320.877 760.184 313.31 747.682 313.31C735.18 313.31 728.929 320.877 728.929 336.011V462.018C728.929 476.933 735.18 484.39 747.682 484.39C760.184 484.39 766.435 476.933 766.435 462.018V416.945H748.34V384.045H800.651V459.386C800.651 478.029 796.045 492.396 786.833 502.485C777.621 512.355 764.242 517.29 746.695 517.29ZM810.727 283.7H864.354C882.997 283.7 896.596 288.087 905.15 296.86C913.704 305.414 917.981 318.684 917.981 336.669V350.816C917.981 374.723 910.085 389.857 894.293 396.218V396.876C903.066 399.508 909.207 404.882 912.717 412.997C916.445 421.112 918.31 431.969 918.31 445.568V486.035C918.31 492.615 918.529 497.989 918.968 502.156C919.406 506.104 920.503 510.052 922.258 514H885.41C884.094 510.271 883.216 506.762 882.778 503.472C882.339 500.182 882.12 494.26 882.12 485.706V443.594C882.12 433.066 880.365 425.718 876.856 421.551C873.566 417.384 867.753 415.3 859.419 415.3H846.917V514H810.727V283.7ZM860.077 382.4C867.315 382.4 872.688 380.536 876.198 376.807C879.926 373.078 881.791 366.827 881.791 358.054V340.288C881.791 331.953 880.255 325.922 877.185 322.193C874.333 318.464 869.727 316.6 863.367 316.6H846.917V382.4H860.077ZM982.57 517.29C964.804 517.29 951.205 512.245 941.774 502.156C932.343 492.067 927.627 477.81 927.627 459.386V338.314C927.627 319.89 932.343 305.633 941.774 295.544C951.205 285.455 964.804 280.41 982.57 280.41C1000.34 280.41 1013.93 285.455 1023.37 295.544C1032.8 305.633 1037.51 319.89 1037.51 338.314V459.386C1037.51 477.81 1032.8 492.067 1023.37 502.156C1013.93 512.245 1000.34 517.29 982.57 517.29ZM982.57 484.39C995.072 484.39 1001.32 476.823 1001.32 461.689V336.011C1001.32 320.877 995.072 313.31 982.57 313.31C970.068 313.31 963.817 320.877 963.817 336.011V461.689C963.817 476.823 970.068 484.39 982.57 484.39ZM1101.47 517.29C1083.92 517.29 1070.54 512.355 1061.33 502.485C1052.12 492.396 1047.51 478.029 1047.51 459.386V283.7H1083.7V462.018C1083.7 469.914 1085.24 475.617 1088.31 479.126C1091.6 482.635 1096.2 484.39 1102.13 484.39C1108.05 484.39 1112.54 482.635 1115.61 479.126C1118.9 475.617 1120.55 469.914 1120.55 462.018V283.7H1155.42V459.386C1155.42 478.029 1150.82 492.396 1141.61 502.485C1132.39 512.355 1119.01 517.29 1101.47 517.29ZM1168.04 283.7H1221.34C1239.32 283.7 1252.81 288.525 1261.8 298.176C1270.8 307.827 1275.29 321.974 1275.29 340.617V363.318C1275.29 381.961 1270.8 396.108 1261.8 405.759C1252.81 415.41 1239.32 420.235 1221.34 420.235H1204.23V514H1168.04V283.7ZM1221.34 387.335C1227.26 387.335 1231.65 385.69 1234.5 382.4C1237.57 379.11 1239.1 373.517 1239.1 365.621V338.314C1239.1 330.418 1237.57 324.825 1234.5 321.535C1231.65 318.245 1227.26 316.6 1221.34 316.6H1204.23V387.335H1221.34Z" fill="#FAF9F9"/>
</svg>
