<svg width="1747" height="917" viewBox="0 0 1747 917" fill="none" xmlns="http://www.w3.org/2000/svg">
<line x1="970.15" y1="-6.55671e-09" x2="970.15" y2="958" stroke="#D6D5D3" stroke-width="0.3"/>
<line x1="1280.15" y1="758" x2="1280.15" y2="958" stroke="#D6D5D3" stroke-width="0.3"/>
<line x1="1745.15" y1="758" x2="1745.15" y2="958" stroke="#D6D5D3" stroke-width="0.3"/>
<line x1="815.15" y1="-6.55671e-09" x2="815.15" y2="958" stroke="#D6D5D3" stroke-width="0.3"/>
<line x1="1435.15" y1="-6.55671e-09" x2="1435.15" y2="958" stroke="#D6D5D3" stroke-width="0.3"/>
<line x1="350.15" y1="334" x2="350.15" y2="958" stroke="#D6D5D3" stroke-width="0.3"/>
<line x1="505.15" y1="-6.55671e-09" x2="505.15" y2="958" stroke="#D6D5D3" stroke-width="0.3"/>
<line x1="660.15" y1="-6.55671e-09" x2="660.15" y2="958" stroke="#D6D5D3" stroke-width="0.3"/>
<line x1="195.15" y1="418" x2="195.15" y2="958" stroke="#D6D5D3" stroke-width="0.3"/>
<line x1="505" y1="180.15" y2="180.15" stroke="#D6D5D3" stroke-width="0.3"/>
<line x1="350" y1="566.15" x2="195" y2="566.15" stroke="#D6D5D3" stroke-width="0.3"/>
<line x1="815" y1="486.15" x2="660" y2="486.15" stroke="#D6D5D3" stroke-width="0.3"/>
<line x1="815" y1="180.15" x2="660" y2="180.15" stroke="#D6D5D3" stroke-width="0.3"/>
<line x1="970" y1="334.15" x2="815" y2="334.15" stroke="#D6D5D3" stroke-width="0.3"/>
<line x1="970" y1="646.15" x2="815" y2="646.15" stroke="#D6D5D3" stroke-width="0.3"/>
<line x1="1435" y1="646.15" x2="1280" y2="646.15" stroke="#D6D5D3" stroke-width="0.3"/>
<line x1="1280" y1="758.15" x2="970" y2="758.15" stroke="#D6D5D3" stroke-width="0.3"/>
<line x1="1745" y1="758.15" x2="1435" y2="758.15" stroke="#D6D5D3" stroke-width="0.3"/>
<circle cx="815" cy="486" r="2" transform="rotate(90 815 486)" fill="#D6D5D3"/>
<circle cx="815" cy="180" r="2" transform="rotate(90 815 180)" fill="#D6D5D3"/>
<circle cx="970" cy="334" r="2" transform="rotate(90 970 334)" fill="#D6D5D3"/>
<circle cx="970" cy="646" r="2" transform="rotate(90 970 646)" fill="#D6D5D3"/>
<circle cx="1280" cy="646" r="2" transform="rotate(90 1280 646)" fill="#D6D5D3"/>
<circle cx="1280" cy="758" r="2" transform="rotate(90 1280 758)" fill="#D6D5D3"/>
<circle cx="1435" cy="758" r="2" transform="rotate(90 1435 758)" fill="#D6D5D3"/>
<circle cx="1745" cy="758" r="2" transform="rotate(90 1745 758)" fill="#D6D5D3"/>
<circle cx="350" cy="566" r="2" transform="rotate(90 350 566)" fill="#D6D5D3"/>
<circle cx="505" cy="180" r="2" transform="rotate(90 505 180)" fill="#D6D5D3"/>
<circle cx="660" cy="486" r="2" transform="rotate(90 660 486)" fill="#D6D5D3"/>
<circle cx="660" cy="180" r="2" transform="rotate(90 660 180)" fill="#D6D5D3"/>
<circle cx="815" cy="334" r="2" transform="rotate(90 815 334)" fill="#D6D5D3"/>
<circle cx="815" cy="646" r="2" transform="rotate(90 815 646)" fill="#D6D5D3"/>
<circle cx="970" cy="758" r="2" transform="rotate(90 970 758)" fill="#D6D5D3"/>
<line x1="660" y1="758.15" x2="505" y2="758.15" stroke="#D6D5D3" stroke-width="0.3"/>
<circle cx="660" cy="758" r="2" transform="rotate(90 660 758)" fill="#D6D5D3"/>
<circle cx="505" cy="758" r="2" transform="rotate(90 505 758)" fill="#D6D5D3"/>
<circle cx="195" cy="566" r="2" transform="rotate(90 195 566)" fill="#D6D5D3"/>
<circle cx="350" cy="418" r="2" transform="rotate(90 350 418)" fill="#D6D5D3"/>
</svg>
