<svg width="1747" height="958" viewBox="0 0 1747 958" fill="none" xmlns="http://www.w3.org/2000/svg">
<line x1="970.15" y1="-6.55671e-09" x2="970.15" y2="958" stroke="#D6D5D3" stroke-width="0.3"/>
<line x1="1280.15" y1="636" x2="1280.15" y2="958" stroke="#D6D5D3" stroke-width="0.3"/>
<line x1="1745.15" y1="636" x2="1745.15" y2="958" stroke="#D6D5D3" stroke-width="0.3"/>
<line x1="815.15" y1="-6.55671e-09" x2="815.15" y2="958" stroke="#D6D5D3" stroke-width="0.3"/>
<line x1="1435.15" y1="-6.55671e-09" x2="1435.15" y2="958" stroke="#D6D5D3" stroke-width="0.3"/>
<line x1="350.15" y1="212" x2="350.15" y2="958" stroke="#D6D5D3" stroke-width="0.3"/>
<line x1="505.15" y1="-6.55671e-09" x2="505.15" y2="958" stroke="#D6D5D3" stroke-width="0.3"/>
<line x1="660.15" y1="-6.55671e-09" x2="660.15" y2="958" stroke="#D6D5D3" stroke-width="0.3"/>
<line x1="195.15" y1="296" x2="195.15" y2="958" stroke="#D6D5D3" stroke-width="0.3"/>
<line x1="505" y1="58.15" y2="58.15" stroke="#D6D5D3" stroke-width="0.3"/>
<line x1="350" y1="444.15" x2="195" y2="444.15" stroke="#D6D5D3" stroke-width="0.3"/>
<line x1="815" y1="364.15" x2="660" y2="364.15" stroke="#D6D5D3" stroke-width="0.3"/>
<line x1="815" y1="58.15" x2="660" y2="58.15" stroke="#D6D5D3" stroke-width="0.3"/>
<line x1="970" y1="212.15" x2="815" y2="212.15" stroke="#D6D5D3" stroke-width="0.3"/>
<line x1="970" y1="524.15" x2="815" y2="524.15" stroke="#D6D5D3" stroke-width="0.3"/>
<line x1="1435" y1="524.15" x2="1280" y2="524.15" stroke="#D6D5D3" stroke-width="0.3"/>
<line x1="1280" y1="636.15" x2="970" y2="636.15" stroke="#D6D5D3" stroke-width="0.3"/>
<line x1="1745" y1="636.15" x2="1435" y2="636.15" stroke="#D6D5D3" stroke-width="0.3"/>
<line x1="815" y1="822.15" x2="660" y2="822.15" stroke="#D6D5D3" stroke-width="0.3"/>
<circle cx="815" cy="364" r="2" transform="rotate(90 815 364)" fill="#D6D5D3"/>
<circle cx="815" cy="58" r="2" transform="rotate(90 815 58)" fill="#D6D5D3"/>
<circle cx="970" cy="212" r="2" transform="rotate(90 970 212)" fill="#D6D5D3"/>
<circle cx="970" cy="524" r="2" transform="rotate(90 970 524)" fill="#D6D5D3"/>
<circle cx="1280" cy="524" r="2" transform="rotate(90 1280 524)" fill="#D6D5D3"/>
<circle cx="1280" cy="636" r="2" transform="rotate(90 1280 636)" fill="#D6D5D3"/>
<circle cx="1435" cy="636" r="2" transform="rotate(90 1435 636)" fill="#D6D5D3"/>
<circle cx="1745" cy="636" r="2" transform="rotate(90 1745 636)" fill="#D6D5D3"/>
<circle cx="815" cy="822" r="2" transform="rotate(90 815 822)" fill="#D6D5D3"/>
<circle cx="350" cy="444" r="2" transform="rotate(90 350 444)" fill="#D6D5D3"/>
<circle cx="505" cy="58" r="2" transform="rotate(90 505 58)" fill="#D6D5D3"/>
<circle cx="660" cy="364" r="2" transform="rotate(90 660 364)" fill="#D6D5D3"/>
<circle cx="660" cy="58" r="2" transform="rotate(90 660 58)" fill="#D6D5D3"/>
<circle cx="815" cy="212" r="2" transform="rotate(90 815 212)" fill="#D6D5D3"/>
<circle cx="815" cy="524" r="2" transform="rotate(90 815 524)" fill="#D6D5D3"/>
<circle cx="970" cy="636" r="2" transform="rotate(90 970 636)" fill="#D6D5D3"/>
<circle cx="660" cy="822" r="2" transform="rotate(90 660 822)" fill="#D6D5D3"/>
<line x1="660" y1="636.15" x2="505" y2="636.15" stroke="#D6D5D3" stroke-width="0.3"/>
<circle cx="660" cy="636" r="2" transform="rotate(90 660 636)" fill="#D6D5D3"/>
<circle cx="505" cy="636" r="2" transform="rotate(90 505 636)" fill="#D6D5D3"/>
<circle cx="195" cy="444" r="2" transform="rotate(90 195 444)" fill="#D6D5D3"/>
<circle cx="350" cy="296" r="2" transform="rotate(90 350 296)" fill="#D6D5D3"/>
</svg>
