<svg width="1641" height="958" viewBox="0 0 1641 958" fill="none" xmlns="http://www.w3.org/2000/svg">
<line x1="970.15" y1="-6.55671e-09" x2="970.15" y2="958" stroke="url(#paint0_linear_4465_15697)" stroke-width="0.3"/>
<line x1="815.15" y1="-6.55671e-09" x2="815.15" y2="958" stroke="url(#paint1_linear_4465_15697)" stroke-width="0.3"/>
<line x1="350.15" y1="334" x2="350.15" y2="958" stroke="url(#paint2_linear_4465_15697)" stroke-width="0.3"/>
<line x1="505.15" y1="-6.55671e-09" x2="505.15" y2="958" stroke="url(#paint3_linear_4465_15697)" stroke-width="0.3"/>
<line x1="660.15" y1="-6.55671e-09" x2="660.15" y2="958" stroke="url(#paint4_linear_4465_15697)" stroke-width="0.3"/>
<line x1="195.15" y1="418" x2="195.15" y2="958" stroke="url(#paint5_linear_4465_15697)" stroke-width="0.3"/>
<line x1="505" y1="180.15" y2="180.15" stroke="url(#paint6_linear_4465_15697)" stroke-width="0.3"/>
<line x1="350" y1="566.15" x2="195" y2="566.15" stroke="url(#paint7_linear_4465_15697)" stroke-width="0.3"/>
<line x1="815" y1="486.15" x2="660" y2="486.15" stroke="url(#paint8_linear_4465_15697)" stroke-width="0.3"/>
<line x1="815" y1="180.15" x2="660" y2="180.15" stroke="url(#paint9_linear_4465_15697)" stroke-width="0.3"/>
<line x1="970" y1="334.15" x2="815" y2="334.15" stroke="url(#paint10_linear_4465_15697)" stroke-width="0.3"/>
<line x1="970" y1="646.15" x2="815" y2="646.15" stroke="url(#paint11_linear_4465_15697)" stroke-width="0.3"/>
<line x1="815" y1="944.15" x2="660" y2="944.15" stroke="url(#paint12_linear_4465_15697)" stroke-width="0.3"/>
<circle cx="815" cy="486" r="1.5" transform="rotate(90 815 486)" fill="#D6D5D3" stroke="url(#paint13_linear_4465_15697)"/>
<circle cx="815" cy="180" r="1.5" transform="rotate(90 815 180)" fill="#D6D5D3" stroke="url(#paint14_linear_4465_15697)"/>
<circle cx="970" cy="334" r="1.5" transform="rotate(90 970 334)" fill="#D6D5D3" stroke="url(#paint15_linear_4465_15697)"/>
<circle cx="970" cy="646" r="1.5" transform="rotate(90 970 646)" fill="#D6D5D3" stroke="url(#paint16_linear_4465_15697)"/>
<circle cx="1639" cy="855" r="1.5" transform="rotate(90 1639 855)" fill="#D6D5D3" stroke="url(#paint17_linear_4465_15697)"/>
<circle cx="815" cy="944" r="1.5" transform="rotate(90 815 944)" fill="#D6D5D3" stroke="url(#paint18_linear_4465_15697)"/>
<circle cx="350" cy="566" r="1.5" transform="rotate(90 350 566)" fill="#D6D5D3" stroke="url(#paint19_linear_4465_15697)"/>
<circle cx="505" cy="180" r="1.5" transform="rotate(90 505 180)" fill="#D6D5D3" stroke="url(#paint20_linear_4465_15697)"/>
<circle cx="660" cy="486" r="1.5" transform="rotate(90 660 486)" fill="#D6D5D3" stroke="url(#paint21_linear_4465_15697)"/>
<circle cx="660" cy="180" r="1.5" transform="rotate(90 660 180)" fill="#D6D5D3" stroke="url(#paint22_linear_4465_15697)"/>
<circle cx="815" cy="334" r="1.5" transform="rotate(90 815 334)" fill="#D6D5D3" stroke="url(#paint23_linear_4465_15697)"/>
<circle cx="815" cy="646" r="1.5" transform="rotate(90 815 646)" fill="#D6D5D3" stroke="url(#paint24_linear_4465_15697)"/>
<circle cx="660" cy="944" r="1.5" transform="rotate(90 660 944)" fill="#D6D5D3" stroke="url(#paint25_linear_4465_15697)"/>
<line x1="660" y1="758.15" x2="505" y2="758.15" stroke="url(#paint26_linear_4465_15697)" stroke-width="0.3"/>
<circle cx="660" cy="758" r="1.5" transform="rotate(90 660 758)" fill="#D6D5D3" stroke="url(#paint27_linear_4465_15697)"/>
<circle cx="505" cy="758" r="1.5" transform="rotate(90 505 758)" fill="#D6D5D3" stroke="url(#paint28_linear_4465_15697)"/>
<circle cx="195" cy="566" r="1.5" transform="rotate(90 195 566)" fill="#D6D5D3" stroke="url(#paint29_linear_4465_15697)"/>
<circle cx="350" cy="418" r="1.5" transform="rotate(90 350 418)" fill="#D6D5D3" stroke="url(#paint30_linear_4465_15697)"/>
<defs>
<linearGradient id="paint0_linear_4465_15697" x1="970" y1="479" x2="969" y2="479" gradientUnits="userSpaceOnUse">
<stop offset="1" stop-color="#3F3F3F"/>
</linearGradient>
<linearGradient id="paint1_linear_4465_15697" x1="815" y1="479" x2="814" y2="479" gradientUnits="userSpaceOnUse">
<stop offset="1" stop-color="#3F3F3F"/>
</linearGradient>
<linearGradient id="paint2_linear_4465_15697" x1="350" y1="646" x2="349" y2="646" gradientUnits="userSpaceOnUse">
<stop offset="1" stop-color="#3F3F3F"/>
</linearGradient>
<linearGradient id="paint3_linear_4465_15697" x1="505" y1="479" x2="504" y2="479" gradientUnits="userSpaceOnUse">
<stop offset="1" stop-color="#3F3F3F"/>
</linearGradient>
<linearGradient id="paint4_linear_4465_15697" x1="660" y1="479" x2="659" y2="479" gradientUnits="userSpaceOnUse">
<stop offset="1" stop-color="#3F3F3F"/>
</linearGradient>
<linearGradient id="paint5_linear_4465_15697" x1="195" y1="688" x2="194" y2="688" gradientUnits="userSpaceOnUse">
<stop offset="1" stop-color="#3F3F3F"/>
</linearGradient>
<linearGradient id="paint6_linear_4465_15697" x1="252.5" y1="180" x2="252.5" y2="179" gradientUnits="userSpaceOnUse">
<stop offset="1" stop-color="#3F3F3F"/>
</linearGradient>
<linearGradient id="paint7_linear_4465_15697" x1="272.5" y1="566" x2="272.5" y2="565" gradientUnits="userSpaceOnUse">
<stop offset="1" stop-color="#3F3F3F"/>
</linearGradient>
<linearGradient id="paint8_linear_4465_15697" x1="737.5" y1="486" x2="737.5" y2="485" gradientUnits="userSpaceOnUse">
<stop offset="1" stop-color="#3F3F3F"/>
</linearGradient>
<linearGradient id="paint9_linear_4465_15697" x1="737.5" y1="180" x2="737.5" y2="179" gradientUnits="userSpaceOnUse">
<stop offset="1" stop-color="#3F3F3F"/>
</linearGradient>
<linearGradient id="paint10_linear_4465_15697" x1="892.5" y1="334" x2="892.5" y2="333" gradientUnits="userSpaceOnUse">
<stop offset="1" stop-color="#3F3F3F"/>
</linearGradient>
<linearGradient id="paint11_linear_4465_15697" x1="892.5" y1="646" x2="892.5" y2="645" gradientUnits="userSpaceOnUse">
<stop offset="1" stop-color="#3F3F3F"/>
</linearGradient>
<linearGradient id="paint12_linear_4465_15697" x1="737.5" y1="944" x2="737.5" y2="943" gradientUnits="userSpaceOnUse">
<stop offset="1" stop-color="#3F3F3F"/>
</linearGradient>
<linearGradient id="paint13_linear_4465_15697" x1="815" y1="484" x2="815" y2="488" gradientUnits="userSpaceOnUse">
<stop offset="1" stop-color="#3F3F3F"/>
</linearGradient>
<linearGradient id="paint14_linear_4465_15697" x1="815" y1="178" x2="815" y2="182" gradientUnits="userSpaceOnUse">
<stop offset="1" stop-color="#3F3F3F"/>
</linearGradient>
<linearGradient id="paint15_linear_4465_15697" x1="970" y1="332" x2="970" y2="336" gradientUnits="userSpaceOnUse">
<stop offset="1" stop-color="#3F3F3F"/>
</linearGradient>
<linearGradient id="paint16_linear_4465_15697" x1="970" y1="644" x2="970" y2="648" gradientUnits="userSpaceOnUse">
<stop offset="1" stop-color="#3F3F3F"/>
</linearGradient>
<linearGradient id="paint17_linear_4465_15697" x1="1639" y1="853" x2="1639" y2="857" gradientUnits="userSpaceOnUse">
<stop offset="1" stop-color="#3F3F3F"/>
</linearGradient>
<linearGradient id="paint18_linear_4465_15697" x1="815" y1="942" x2="815" y2="946" gradientUnits="userSpaceOnUse">
<stop offset="1" stop-color="#3F3F3F"/>
</linearGradient>
<linearGradient id="paint19_linear_4465_15697" x1="350" y1="564" x2="350" y2="568" gradientUnits="userSpaceOnUse">
<stop offset="1" stop-color="#3F3F3F"/>
</linearGradient>
<linearGradient id="paint20_linear_4465_15697" x1="505" y1="178" x2="505" y2="182" gradientUnits="userSpaceOnUse">
<stop offset="1" stop-color="#3F3F3F"/>
</linearGradient>
<linearGradient id="paint21_linear_4465_15697" x1="660" y1="484" x2="660" y2="488" gradientUnits="userSpaceOnUse">
<stop offset="1" stop-color="#3F3F3F"/>
</linearGradient>
<linearGradient id="paint22_linear_4465_15697" x1="660" y1="178" x2="660" y2="182" gradientUnits="userSpaceOnUse">
<stop offset="1" stop-color="#3F3F3F"/>
</linearGradient>
<linearGradient id="paint23_linear_4465_15697" x1="815" y1="332" x2="815" y2="336" gradientUnits="userSpaceOnUse">
<stop offset="1" stop-color="#3F3F3F"/>
</linearGradient>
<linearGradient id="paint24_linear_4465_15697" x1="815" y1="644" x2="815" y2="648" gradientUnits="userSpaceOnUse">
<stop offset="1" stop-color="#3F3F3F"/>
</linearGradient>
<linearGradient id="paint25_linear_4465_15697" x1="660" y1="942" x2="660" y2="946" gradientUnits="userSpaceOnUse">
<stop offset="1" stop-color="#3F3F3F"/>
</linearGradient>
<linearGradient id="paint26_linear_4465_15697" x1="582.5" y1="758" x2="582.5" y2="757" gradientUnits="userSpaceOnUse">
<stop offset="1" stop-color="#3F3F3F"/>
</linearGradient>
<linearGradient id="paint27_linear_4465_15697" x1="660" y1="756" x2="660" y2="760" gradientUnits="userSpaceOnUse">
<stop offset="1" stop-color="#3F3F3F"/>
</linearGradient>
<linearGradient id="paint28_linear_4465_15697" x1="505" y1="756" x2="505" y2="760" gradientUnits="userSpaceOnUse">
<stop offset="1" stop-color="#3F3F3F"/>
</linearGradient>
<linearGradient id="paint29_linear_4465_15697" x1="195" y1="564" x2="195" y2="568" gradientUnits="userSpaceOnUse">
<stop offset="1" stop-color="#3F3F3F"/>
</linearGradient>
<linearGradient id="paint30_linear_4465_15697" x1="350" y1="416" x2="350" y2="420" gradientUnits="userSpaceOnUse">
<stop offset="1" stop-color="#3F3F3F"/>
</linearGradient>
</defs>
</svg>
